<?xml version="1.0" standalone="no"?>
<!DOCTYPE svg PUBLIC "-//W3C//DTD SVG 20010904//EN"
 "http://www.w3.org/TR/2001/REC-SVG-20010904/DTD/svg10.dtd">
<svg version="1.0" xmlns="http://www.w3.org/2000/svg"
 width="1280.000000pt" height="1036.000000pt" viewBox="0 0 1280.000000 1036.000000"
 preserveAspectRatio="xMidYMid meet">
<g transform="translate(0.000000,1036.000000) scale(0.100000,-0.100000)"
fill="#000000" stroke="none">
<path d="M853 9643 c-406 -377 -764 -711 -796 -740 l-57 -55 2 -538 3 -538
799 744 c440 409 804 744 810 744 6 0 366 -333 800 -740 l788 -739 33 27 c18
15 375 347 794 737 419 391 768 711 775 713 7 2 363 -326 792 -728 428 -401
782 -730 787 -730 4 0 7 234 7 519 l0 520 -787 737 c-434 406 -791 742 -794
747 -4 6 -13 7 -20 4 -8 -3 -367 -334 -799 -736 -432 -402 -792 -731 -800
-731 -9 0 -369 331 -800 735 -431 404 -788 735 -792 735 -4 0 -339 -309 -745
-687z"/>
<path d="M7202 9595 c-441 -410 -792 -745 -796 -757 -8 -32 -6 -1019 2 -1040
6 -13 181 145 801 723 437 406 799 739 805 739 6 0 366 -333 800 -740 l788
-739 33 27 c18 15 375 347 794 737 419 391 768 711 775 713 10 2 918 -840
1544 -1431 l32 -31 0 526 0 526 -773 725 c-425 398 -781 732 -790 742 -10 9
-23 15 -30 12 -6 -3 -365 -334 -797 -736 -432 -402 -792 -731 -800 -731 -9 0
-369 331 -800 735 -431 404 -787 735 -792 735 -4 0 -362 -331 -796 -735z"/>
<path d="M813 7017 l-793 -742 0 -523 c0 -288 4 -522 8 -520 5 2 354 327 776
723 422 396 773 723 781 728 9 5 254 -217 806 -730 435 -406 797 -738 804
-738 7 0 366 332 799 738 552 517 791 735 801 730 7 -5 368 -338 801 -741 566
-528 789 -730 795 -720 10 15 10 1012 1 1045 -7 22 -1581 1495 -1593 1490 -4
-1 -361 -334 -793 -740 -493 -462 -793 -737 -801 -733 -8 3 -368 335 -801 738
-433 403 -789 734 -793 735 -3 2 -363 -331 -798 -740z"/>
<path d="M7220 7024 c-432 -404 -791 -742 -797 -751 -17 -22 -19 -1043 -3
-1043 6 0 357 325 781 722 423 398 776 726 784 731 9 5 251 -214 806 -730 435
-406 797 -738 804 -738 7 0 366 332 799 738 552 517 791 735 801 730 7 -5 358
-330 780 -723 422 -393 780 -725 796 -738 l29 -23 0 538 0 538 -795 740 c-438
407 -799 740 -804 740 -4 0 -362 -332 -795 -738 -493 -462 -793 -737 -801
-733 -8 3 -368 335 -801 738 -433 403 -789 734 -793 735 -3 2 -359 -328 -791
-733z"/>
<path d="M853 4463 c-406 -377 -764 -711 -796 -740 l-57 -55 2 -538 3 -538
799 744 c440 409 804 744 810 744 6 0 366 -333 800 -740 l788 -739 33 27 c18
15 375 347 794 737 419 391 768 711 775 713 7 2 363 -326 792 -728 428 -401
782 -730 787 -730 4 0 7 234 7 519 l0 520 -777 729 c-428 400 -786 736 -796
746 -10 10 -23 16 -30 13 -6 -3 -365 -334 -797 -736 -432 -402 -792 -731 -800
-731 -9 0 -369 331 -800 735 -431 404 -788 735 -792 735 -4 0 -339 -309 -745
-687z"/>
<path d="M7202 4415 c-442 -412 -792 -745 -796 -757 -8 -32 -6 -1019 2 -1040
6 -13 179 143 801 723 437 406 799 739 805 739 6 0 366 -333 800 -740 l788
-739 33 27 c18 15 375 347 794 737 419 391 768 711 775 713 10 2 919 -841
1544 -1431 l32 -31 0 526 0 526 -773 724 c-424 399 -780 732 -790 742 -10 10
-23 16 -30 13 -6 -3 -365 -334 -797 -736 -432 -402 -792 -731 -800 -731 -9 0
-369 331 -800 735 -431 404 -788 735 -792 735 -4 0 -362 -331 -796 -735z"/>
<path d="M813 1837 l-793 -742 0 -523 c0 -435 2 -522 13 -515 8 4 357 330 776
723 419 393 769 718 776 723 9 5 255 -218 806 -730 435 -406 797 -738 804
-738 7 0 366 332 799 738 553 519 791 735 801 730 7 -5 368 -338 801 -741 573
-534 789 -730 795 -720 10 15 10 1012 1 1045 -7 22 -1581 1495 -1593 1490 -4
-1 -361 -334 -793 -740 -493 -462 -793 -737 -801 -733 -8 3 -368 335 -801 738
-433 403 -789 734 -793 735 -3 2 -363 -331 -798 -740z"/>
<path d="M7220 1844 c-432 -404 -791 -742 -797 -751 -10 -13 -13 -135 -13
-531 0 -455 2 -513 15 -508 8 3 360 328 781 723 421 395 771 721 779 726 9 5
254 -216 806 -730 435 -406 797 -738 804 -738 7 0 366 332 799 738 553 518
791 735 801 730 7 -5 361 -332 785 -728 425 -396 783 -728 796 -738 l24 -19 0
539 0 538 -795 740 c-438 407 -799 740 -804 740 -4 0 -362 -332 -795 -738
-493 -462 -793 -737 -801 -733 -8 3 -368 335 -801 738 -433 403 -789 734 -793
735 -3 2 -359 -328 -791 -733z"/>
</g>
</svg>
